# xmcd
#
# Track frame offsets:
#	150
#	1098
#	38293
#	53202
#	70797
#	79577
#	92325
#	121166
#	138611
#	139286
#	152035
#	152649
#	170284
#	193673
#	213843
#	231837
#	252346
#	266156
#
# Disc length: 3753 seconds
#
# Revision: 1
# Processed by: cddbd v1.5.1PL0 Copyright (c) Steve Scherf et al.
# Submitted via: CDex 1.50Beta5
#
DISCID=e50ea712
DTITLE=Silly Walker - - |￣|○
DYEAR=1900
DGENRE=
TTITLE0=すぺらんかー/_|￣|○イントロ
TTITLE1=YamaDAjet+みろみろ☆むむ ちょっと+BLACKHEART/トーク
TTITLE2=すぺらんかー feat.みろみろ☆むむ/チュッパチャプス
TTITLE3=Yamajet/WATCHINGOUT!!!!!(Long)
TTITLE4=YamaDAjet(Yamajet+Spelunker)/rottel-di-stress
TTITLE5=すぺらんかー+みろみろ☆むむ ちょっと+BLACKHEART/トーク2
TTITLE6=すぺらんかー/MQ-tech
TTITLE7=Yamajet/spark
TTITLE8=すぺらんかー+みろみろ☆むむ/小ネタ
TTITLE9=CANNON FODDER/CANNON FODDERの部屋
TTITLE10=すぺらんかー+Yamajet/小ネタ2
TTITLE11=Yamajet/おんぷにぐー
TTITLE12=YamaDAjet(Spelunker+Yamajet)/Re:Routes
TTITLE13=すぺらんかー/field pass
TTITLE14=YamaDAjet+みろみろ☆むむ ちょっと+BLACKHEART/トーク3
TTITLE15=Yamajet/recombination
TTITLE16=すぺらんかー/Sweet blood
TTITLE17=マエストロna/Thor feat.すぺらんかー/classic-21
EXTD=
EXTT0=
EXTT1=
EXTT2=
EXTT3=
EXTT4=
EXTT5=
EXTT6=
EXTT7=
EXTT8=
EXTT9=
EXTT10=
EXTT11=
EXTT12=
EXTT13=
EXTT14=
EXTT15=
EXTT16=
EXTT17=
PLAYORDER=
